<svg xmlns="http://www.w3.org/2000/svg" xmlns:xlink="http://www.w3.org/1999/xlink" width="442" zoomAndPan="magnify" viewBox="0 0 331.5 179.249993" height="239" preserveAspectRatio="xMidYMid meet" version="1.0"><defs><g/><clipPath id="cda6d45462"><path d="M 112.9375 0.308594 L 151 0.308594 L 151 39 L 112.9375 39 Z M 112.9375 0.308594 " clip-rule="nonzero"/></clipPath><clipPath id="6ed0fac4ad"><path d="M 208.292969 22.066406 L 236.492188 22.066406 L 236.492188 50.265625 L 208.292969 50.265625 Z M 208.292969 22.066406 " clip-rule="nonzero"/></clipPath><clipPath id="b1ec480abc"><path d="M 222.394531 22.066406 C 214.605469 22.066406 208.292969 28.378906 208.292969 36.164062 C 208.292969 43.953125 214.605469 50.265625 222.394531 50.265625 C 230.179688 50.265625 236.492188 43.953125 236.492188 36.164062 C 236.492188 28.378906 230.179688 22.066406 222.394531 22.066406 Z M 222.394531 22.066406 " clip-rule="nonzero"/></clipPath><clipPath id="bce22f8c36"><path d="M 208.292969 22.066406 L 236.488281 22.066406 L 236.488281 50.261719 L 208.292969 50.261719 Z M 208.292969 22.066406 " clip-rule="nonzero"/></clipPath><clipPath id="6a97dcf0a1"><path d="M 222.390625 22.066406 C 214.605469 22.066406 208.292969 28.378906 208.292969 36.164062 C 208.292969 43.949219 214.605469 50.261719 222.390625 50.261719 C 230.175781 50.261719 236.488281 43.949219 236.488281 36.164062 C 236.488281 28.378906 230.175781 22.066406 222.390625 22.066406 Z M 222.390625 22.066406 " clip-rule="nonzero"/></clipPath><clipPath id="92916866d9"><path d="M 242.652344 66.0625 L 258.089844 66.0625 L 258.089844 81.503906 L 242.652344 81.503906 Z M 242.652344 66.0625 " clip-rule="nonzero"/></clipPath><clipPath id="e71fec4d56"><path d="M 250.371094 66.0625 C 246.109375 66.0625 242.652344 69.519531 242.652344 73.785156 C 242.652344 78.046875 246.109375 81.503906 250.371094 81.503906 C 254.636719 81.503906 258.089844 78.046875 258.089844 73.785156 C 258.089844 69.519531 254.636719 66.0625 250.371094 66.0625 Z M 250.371094 66.0625 " clip-rule="nonzero"/></clipPath><clipPath id="4313012110"><path d="M 70.761719 80.816406 L 98.957031 80.816406 L 98.957031 109.007812 L 70.761719 109.007812 Z M 70.761719 80.816406 " clip-rule="nonzero"/></clipPath><clipPath id="c3f82c14f6"><path d="M 84.859375 80.816406 C 77.074219 80.816406 70.761719 87.125 70.761719 94.914062 C 70.761719 102.699219 77.074219 109.007812 84.859375 109.007812 C 92.644531 109.007812 98.957031 102.699219 98.957031 94.914062 C 98.957031 87.125 92.644531 80.816406 84.859375 80.816406 Z M 84.859375 80.816406 " clip-rule="nonzero"/></clipPath></defs><g fill="#d42146" fill-opacity="1"><g transform="translate(13.418863, 158.647425)"><g><path d="M 3.046875 -30.46875 L 17.453125 -30.46875 C 20.878906 -30.46875 23.597656 -29.78125 25.609375 -28.40625 C 27.628906 -27.03125 28.640625 -25.179688 28.640625 -22.859375 C 28.640625 -21.253906 28.175781 -19.847656 27.25 -18.640625 C 26.320312 -17.441406 25.046875 -16.613281 23.421875 -16.15625 C 25.335938 -15.769531 26.859375 -14.878906 27.984375 -13.484375 C 29.117188 -12.097656 29.6875 -10.414062 29.6875 -8.4375 C 29.6875 -5.863281 28.632812 -3.8125 26.53125 -2.28125 C 24.425781 -0.757812 21.578125 0 17.984375 0 L 3.046875 0 Z M 10.75 -24.546875 L 10.75 -18.28125 L 17.015625 -18.28125 C 18.148438 -18.28125 19.050781 -18.5625 19.71875 -19.125 C 20.382812 -19.695312 20.71875 -20.472656 20.71875 -21.453125 C 20.71875 -22.410156 20.382812 -23.164062 19.71875 -23.71875 C 19.050781 -24.269531 18.148438 -24.546875 17.015625 -24.546875 Z M 10.75 -12.71875 L 10.75 -5.96875 L 17.015625 -5.96875 C 18.472656 -5.96875 19.613281 -6.269531 20.4375 -6.875 C 21.257812 -7.488281 21.671875 -8.332031 21.671875 -9.40625 C 21.671875 -10.414062 21.257812 -11.21875 20.4375 -11.8125 C 19.613281 -12.414062 18.472656 -12.71875 17.015625 -12.71875 Z M 10.75 -12.71875 "/></g></g></g><g fill="#d42146" fill-opacity="1"><g transform="translate(44.541927, 158.647425)"><g><path d="M 3.9375 -33.0625 C 4.675781 -33.800781 5.625 -34.171875 6.78125 -34.171875 C 7.945312 -34.171875 8.898438 -33.800781 9.640625 -33.0625 C 10.378906 -32.320312 10.75 -31.367188 10.75 -30.203125 C 10.75 -29.046875 10.378906 -28.085938 9.640625 -27.328125 C 8.898438 -26.578125 7.945312 -26.203125 6.78125 -26.203125 C 5.625 -26.203125 4.675781 -26.578125 3.9375 -27.328125 C 3.195312 -28.085938 2.828125 -29.046875 2.828125 -30.203125 C 2.828125 -31.367188 3.195312 -32.320312 3.9375 -33.0625 Z M 10.484375 0 L 3 0 L 3 -23.46875 L 10.484375 -23.46875 Z M 10.484375 0 "/></g></g></g><g fill="#d42146" fill-opacity="1"><g transform="translate(58.079366, 158.647425)"><g><path d="M 13.890625 -23.71875 C 17.710938 -23.71875 20.800781 -22.625 23.15625 -20.4375 C 25.507812 -18.25 26.6875 -15.351562 26.6875 -11.75 C 26.6875 -8.15625 25.507812 -5.253906 23.15625 -3.046875 C 20.800781 -0.835938 17.710938 0.265625 13.890625 0.265625 C 10.023438 0.265625 6.914062 -0.835938 4.5625 -3.046875 C 2.21875 -5.253906 1.046875 -8.15625 1.046875 -11.75 C 1.046875 -15.351562 2.21875 -18.25 4.5625 -20.4375 C 6.914062 -22.625 10.023438 -23.71875 13.890625 -23.71875 Z M 13.890625 -17.765625 C 12.316406 -17.765625 11.046875 -17.195312 10.078125 -16.0625 C 9.109375 -14.925781 8.625 -13.460938 8.625 -11.671875 C 8.625 -9.835938 9.109375 -8.363281 10.078125 -7.25 C 11.046875 -6.132812 12.316406 -5.578125 13.890625 -5.578125 C 15.421875 -5.578125 16.671875 -6.132812 17.640625 -7.25 C 18.617188 -8.363281 19.109375 -9.835938 19.109375 -11.671875 C 19.109375 -13.460938 18.617188 -14.925781 17.640625 -16.0625 C 16.671875 -17.195312 15.421875 -17.765625 13.890625 -17.765625 Z M 13.890625 -17.765625 "/></g></g></g><g fill="#d42146" fill-opacity="1"><g transform="translate(85.807178, 158.647425)"><g><path d="M 3.046875 -30.46875 L 16.328125 -30.46875 C 20.210938 -30.46875 23.226562 -29.546875 25.375 -27.703125 C 27.519531 -25.859375 28.59375 -23.238281 28.59375 -19.84375 C 28.59375 -16.28125 27.519531 -13.507812 25.375 -11.53125 C 23.226562 -9.5625 20.210938 -8.578125 16.328125 -8.578125 L 10.796875 -8.578125 L 10.796875 0 L 3.046875 0 Z M 10.796875 -24.375 L 10.796875 -14.671875 L 15.9375 -14.671875 C 17.644531 -14.671875 18.960938 -15.085938 19.890625 -15.921875 C 20.816406 -16.765625 21.28125 -17.988281 21.28125 -19.59375 C 21.28125 -21.15625 20.816406 -22.34375 19.890625 -23.15625 C 18.960938 -23.96875 17.644531 -24.375 15.9375 -24.375 Z M 10.796875 -24.375 "/></g></g></g><g fill="#d42146" fill-opacity="1"><g transform="translate(115.406736, 158.647425)"><g><path d="M 10.53125 -23.46875 L 10.53125 -19.5 C 12.1875 -22.3125 14.726562 -23.75 18.15625 -23.8125 L 18.15625 -17.015625 C 16.007812 -17.222656 14.253906 -16.867188 12.890625 -15.953125 C 11.523438 -15.035156 10.738281 -13.738281 10.53125 -12.0625 L 10.53125 0 L 3 0 L 3 -23.46875 Z M 10.53125 -23.46875 "/></g></g></g><g fill="#d42146" fill-opacity="1"><g transform="translate(133.993513, 158.647425)"><g><path d="M 13.28125 -23.71875 C 17.34375 -23.71875 20.394531 -22.46875 22.4375 -19.96875 C 24.488281 -17.476562 25.382812 -14.054688 25.125 -9.703125 L 8.625 -9.703125 C 9 -8.316406 9.664062 -7.242188 10.625 -6.484375 C 11.582031 -5.734375 12.753906 -5.359375 14.140625 -5.359375 C 16.296875 -5.359375 18.171875 -6.15625 19.765625 -7.75 L 23.71875 -3.875 C 21.195312 -1.113281 17.789062 0.265625 13.5 0.265625 C 9.695312 0.265625 6.671875 -0.820312 4.421875 -3 C 2.171875 -5.175781 1.046875 -8.066406 1.046875 -11.671875 C 1.046875 -15.296875 2.171875 -18.207031 4.421875 -20.40625 C 6.671875 -22.613281 9.625 -23.71875 13.28125 -23.71875 Z M 8.484375 -13.75 L 17.890625 -13.75 C 17.890625 -15.175781 17.472656 -16.320312 16.640625 -17.1875 C 15.816406 -18.0625 14.722656 -18.5 13.359375 -18.5 C 12.085938 -18.5 11.015625 -18.070312 10.140625 -17.21875 C 9.273438 -16.363281 8.722656 -15.207031 8.484375 -13.75 Z M 8.484375 -13.75 "/></g></g></g><g fill="#d42146" fill-opacity="1"><g transform="translate(160.197818, 158.647425)"><g><path d="M 26.640625 -32.296875 L 26.640625 0 L 19.109375 0 L 19.109375 -3.09375 C 17.398438 -0.820312 15.050781 0.3125 12.0625 0.3125 C 8.75 0.3125 6.09375 -0.804688 4.09375 -3.046875 C 2.09375 -5.285156 1.09375 -8.21875 1.09375 -11.84375 C 1.09375 -15.4375 2.078125 -18.320312 4.046875 -20.5 C 6.023438 -22.675781 8.640625 -23.765625 11.890625 -23.765625 C 14.992188 -23.765625 17.398438 -22.632812 19.109375 -20.375 L 19.109375 -32.296875 Z M 10.09375 -7.21875 C 11.050781 -6.09375 12.3125 -5.53125 13.875 -5.53125 C 15.445312 -5.53125 16.710938 -6.09375 17.671875 -7.21875 C 18.628906 -8.351562 19.109375 -9.835938 19.109375 -11.671875 C 19.109375 -13.460938 18.628906 -14.925781 17.671875 -16.0625 C 16.710938 -17.195312 15.445312 -17.765625 13.875 -17.765625 C 12.3125 -17.765625 11.050781 -17.203125 10.09375 -16.078125 C 9.132812 -14.960938 8.644531 -13.492188 8.625 -11.671875 C 8.644531 -9.835938 9.132812 -8.351562 10.09375 -7.21875 Z M 10.09375 -7.21875 "/></g></g></g><g fill="#d42146" fill-opacity="1"><g transform="translate(190.058548, 158.647425)"><g><path d="M 3.9375 -33.0625 C 4.675781 -33.800781 5.625 -34.171875 6.78125 -34.171875 C 7.945312 -34.171875 8.898438 -33.800781 9.640625 -33.0625 C 10.378906 -32.320312 10.75 -31.367188 10.75 -30.203125 C 10.75 -29.046875 10.378906 -28.085938 9.640625 -27.328125 C 8.898438 -26.578125 7.945312 -26.203125 6.78125 -26.203125 C 5.625 -26.203125 4.675781 -26.578125 3.9375 -27.328125 C 3.195312 -28.085938 2.828125 -29.046875 2.828125 -30.203125 C 2.828125 -31.367188 3.195312 -32.320312 3.9375 -33.0625 Z M 10.484375 0 L 3 0 L 3 -23.46875 L 10.484375 -23.46875 Z M 10.484375 0 "/></g></g></g><g fill="#d42146" fill-opacity="1"><g transform="translate(203.595987, 158.647425)"><g><path d="M 13.234375 -23.71875 C 15.554688 -23.71875 17.625 -23.257812 19.4375 -22.34375 C 21.25 -21.4375 22.664062 -20.140625 23.6875 -18.453125 L 18.28125 -15.1875 C 17.125 -16.8125 15.539062 -17.625 13.53125 -17.625 C 12.082031 -17.625 10.898438 -17.078125 9.984375 -15.984375 C 9.078125 -14.898438 8.625 -13.472656 8.625 -11.703125 C 8.625 -9.910156 9.070312 -8.46875 9.96875 -7.375 C 10.863281 -6.289062 12.050781 -5.75 13.53125 -5.75 C 15.738281 -5.75 17.335938 -6.632812 18.328125 -8.40625 L 23.8125 -5.1875 C 22.851562 -3.4375 21.453125 -2.085938 19.609375 -1.140625 C 17.765625 -0.203125 15.609375 0.265625 13.140625 0.265625 C 9.515625 0.265625 6.59375 -0.828125 4.375 -3.015625 C 2.15625 -5.210938 1.046875 -8.097656 1.046875 -11.671875 C 1.046875 -15.265625 2.171875 -18.171875 4.421875 -20.390625 C 6.671875 -22.609375 9.609375 -23.71875 13.234375 -23.71875 Z M 13.234375 -23.71875 "/></g></g></g><g fill="#d42146" fill-opacity="1"><g transform="translate(228.059162, 158.647425)"><g><path d="M 16.671875 -6.484375 L 18.15625 -1.265625 C 16.320312 -0.191406 14.234375 0.34375 11.890625 0.34375 C 9.566406 0.34375 7.6875 -0.300781 6.25 -1.59375 C 4.8125 -2.882812 4.09375 -4.71875 4.09375 -7.09375 L 4.09375 -17.453125 L 0.828125 -17.453125 L 0.828125 -22.375 L 4.09375 -22.375 L 4.09375 -28.90625 L 11.578125 -28.90625 L 11.578125 -22.421875 L 17.71875 -22.421875 L 17.71875 -17.453125 L 11.578125 -17.453125 L 11.578125 -8.265625 C 11.578125 -7.367188 11.757812 -6.707031 12.125 -6.28125 C 12.488281 -5.863281 13.03125 -5.671875 13.75 -5.703125 C 14.445312 -5.703125 15.421875 -5.960938 16.671875 -6.484375 Z M 16.671875 -6.484375 "/></g></g></g><g fill="#d42146" fill-opacity="1"><g transform="translate(246.994155, 158.647425)"><g><path d="M 3.9375 -33.0625 C 4.675781 -33.800781 5.625 -34.171875 6.78125 -34.171875 C 7.945312 -34.171875 8.898438 -33.800781 9.640625 -33.0625 C 10.378906 -32.320312 10.75 -31.367188 10.75 -30.203125 C 10.75 -29.046875 10.378906 -28.085938 9.640625 -27.328125 C 8.898438 -26.578125 7.945312 -26.203125 6.78125 -26.203125 C 5.625 -26.203125 4.675781 -26.578125 3.9375 -27.328125 C 3.195312 -28.085938 2.828125 -29.046875 2.828125 -30.203125 C 2.828125 -31.367188 3.195312 -32.320312 3.9375 -33.0625 Z M 10.484375 0 L 3 0 L 3 -23.46875 L 10.484375 -23.46875 Z M 10.484375 0 "/></g></g></g><g fill="#d42146" fill-opacity="1"><g transform="translate(260.531583, 158.647425)"><g><path d="M 13.890625 -23.71875 C 17.710938 -23.71875 20.800781 -22.625 23.15625 -20.4375 C 25.507812 -18.25 26.6875 -15.351562 26.6875 -11.75 C 26.6875 -8.15625 25.507812 -5.253906 23.15625 -3.046875 C 20.800781 -0.835938 17.710938 0.265625 13.890625 0.265625 C 10.023438 0.265625 6.914062 -0.835938 4.5625 -3.046875 C 2.21875 -5.253906 1.046875 -8.15625 1.046875 -11.75 C 1.046875 -15.351562 2.21875 -18.25 4.5625 -20.4375 C 6.914062 -22.625 10.023438 -23.71875 13.890625 -23.71875 Z M 13.890625 -17.765625 C 12.316406 -17.765625 11.046875 -17.195312 10.078125 -16.0625 C 9.109375 -14.925781 8.625 -13.460938 8.625 -11.671875 C 8.625 -9.835938 9.109375 -8.363281 10.078125 -7.25 C 11.046875 -6.132812 12.316406 -5.578125 13.890625 -5.578125 C 15.421875 -5.578125 16.671875 -6.132812 17.640625 -7.25 C 18.617188 -8.363281 19.109375 -9.835938 19.109375 -11.671875 C 19.109375 -13.460938 18.617188 -14.925781 17.640625 -16.0625 C 16.671875 -17.195312 15.421875 -17.765625 13.890625 -17.765625 Z M 13.890625 -17.765625 "/></g></g></g><g fill="#d42146" fill-opacity="1"><g transform="translate(288.259406, 158.647425)"><g><path d="M 18.375 -23.8125 C 20.957031 -23.8125 23.03125 -22.988281 24.59375 -21.34375 C 26.164062 -19.707031 26.953125 -17.523438 26.953125 -14.796875 L 26.953125 0 L 19.453125 0 L 19.453125 -12.71875 C 19.453125 -14.070312 19.082031 -15.148438 18.34375 -15.953125 C 17.601562 -16.753906 16.597656 -17.15625 15.328125 -17.15625 C 13.992188 -17.15625 12.894531 -16.71875 12.03125 -15.84375 C 11.175781 -14.976562 10.675781 -13.832031 10.53125 -12.40625 L 10.53125 0 L 3 0 L 3 -23.46875 L 10.53125 -23.46875 L 10.53125 -19.625 C 12.1875 -22.351562 14.800781 -23.75 18.375 -23.8125 Z M 18.375 -23.8125 "/></g></g></g><g clip-path="url(#cda6d45462)"><path fill="#d42146" d="M 131.667969 38.03125 C 142.03125 38.03125 150.460938 29.601562 150.460938 19.238281 C 150.460938 8.875 142.03125 0.441406 131.667969 0.441406 C 121.304688 0.441406 112.875 8.875 112.875 19.238281 C 112.875 29.601562 121.304688 38.03125 131.667969 38.03125 Z M 131.667969 5.628906 C 139.171875 5.628906 145.277344 11.734375 145.277344 19.238281 C 145.277344 26.738281 139.171875 32.84375 131.667969 32.84375 C 124.164062 32.84375 118.058594 26.742188 118.058594 19.238281 C 118.058594 11.734375 124.164062 5.628906 131.667969 5.628906 Z M 131.667969 5.628906 " fill-opacity="1" fill-rule="nonzero"/></g><path fill="#d42146" d="M 199.558594 68.289062 C 190.664062 68.289062 183.429688 75.527344 183.429688 84.417969 C 183.429688 93.3125 190.664062 100.546875 199.558594 100.546875 C 208.449219 100.546875 215.6875 93.3125 215.6875 84.417969 C 215.6875 75.527344 208.449219 68.289062 199.558594 68.289062 Z M 199.558594 95.359375 C 193.523438 95.359375 188.617188 90.453125 188.617188 84.417969 C 188.617188 78.386719 193.523438 73.476562 199.558594 73.476562 C 205.589844 73.476562 210.5 78.386719 210.5 84.417969 C 210.5 90.449219 205.589844 95.359375 199.558594 95.359375 Z M 199.558594 95.359375 " fill-opacity="1" fill-rule="nonzero"/><path fill="#dd4400" d="M 181.042969 27.078125 C 185.839844 27.078125 189.742188 23.175781 189.742188 18.378906 C 189.742188 13.582031 185.839844 9.679688 181.042969 9.679688 C 176.246094 9.679688 172.34375 13.582031 172.34375 18.378906 C 172.34375 23.175781 176.246094 27.078125 181.042969 27.078125 Z M 181.042969 14.867188 C 182.980469 14.867188 184.554688 16.441406 184.554688 18.378906 C 184.554688 20.316406 182.980469 21.890625 181.042969 21.890625 C 179.105469 21.890625 177.53125 20.316406 177.53125 18.378906 C 177.53125 16.441406 179.105469 14.867188 181.042969 14.867188 Z M 181.042969 14.867188 " fill-opacity="1" fill-rule="nonzero"/><path fill="#dd4400" d="M 135.621094 64.777344 C 135.621094 59.984375 131.71875 56.082031 126.921875 56.082031 C 122.128906 56.082031 118.226562 59.984375 118.226562 64.777344 C 118.226562 69.574219 122.128906 73.476562 126.921875 73.476562 C 131.71875 73.476562 135.621094 69.574219 135.621094 64.777344 Z M 123.410156 64.777344 C 123.410156 62.84375 124.984375 61.265625 126.921875 61.265625 C 128.859375 61.265625 130.433594 62.84375 130.433594 64.777344 C 130.433594 66.714844 128.859375 68.292969 126.921875 68.292969 C 124.984375 68.292969 123.410156 66.714844 123.410156 64.777344 Z M 123.410156 64.777344 " fill-opacity="1" fill-rule="nonzero"/><path fill="#dd4400" d="M 131.667969 98.285156 C 126.871094 98.285156 122.96875 102.1875 122.96875 106.984375 C 122.96875 111.78125 126.871094 115.683594 131.667969 115.683594 C 136.464844 115.683594 140.367188 111.78125 140.367188 106.984375 C 140.367188 102.1875 136.464844 98.285156 131.667969 98.285156 Z M 131.667969 110.496094 C 129.730469 110.496094 128.15625 108.921875 128.15625 106.984375 C 128.15625 105.046875 129.730469 103.472656 131.667969 103.472656 C 133.605469 103.472656 135.179688 105.046875 135.179688 106.984375 C 135.179688 108.921875 133.605469 110.496094 131.667969 110.496094 Z M 131.667969 110.496094 " fill-opacity="1" fill-rule="nonzero"/><path fill="#df8270" d="M 185.886719 72.535156 C 186.800781 71.433594 186.644531 69.800781 185.542969 68.886719 L 177.667969 62.367188 C 178.433594 60.804688 178.875 59.058594 178.875 57.207031 C 178.875 53.011719 176.65625 49.332031 173.339844 47.253906 L 178.738281 31.265625 C 179.199219 29.910156 178.46875 28.4375 177.113281 27.980469 C 175.753906 27.523438 174.28125 28.25 173.828125 29.609375 L 168.445312 45.539062 C 168.011719 45.488281 167.574219 45.457031 167.125 45.457031 C 164.914062 45.457031 162.847656 46.085938 161.078125 47.152344 L 151.203125 35.035156 C 150.296875 33.925781 148.664062 33.757812 147.554688 34.664062 C 146.441406 35.566406 146.277344 37.199219 147.179688 38.3125 L 157.316406 50.75 C 156.195312 52.449219 155.511719 54.453125 155.40625 56.613281 L 139.175781 60.191406 C 137.777344 60.5 136.894531 61.886719 137.203125 63.28125 C 137.46875 64.492188 138.542969 65.316406 139.730469 65.316406 C 139.917969 65.316406 140.105469 65.296875 140.292969 65.257812 L 156.28125 61.730469 C 156.996094 63.4375 158.105469 64.933594 159.488281 66.121094 L 137.667969 94.886719 C 136.804688 96.03125 137.027344 97.65625 138.167969 98.523438 C 138.636719 98.875 139.1875 99.050781 139.734375 99.050781 C 140.515625 99.050781 141.292969 98.695312 141.800781 98.023438 L 164.148438 68.5625 C 165.101562 68.8125 166.09375 68.960938 167.125 68.960938 C 169.882812 68.960938 172.410156 68 174.417969 66.40625 L 182.238281 72.882812 C 182.71875 73.285156 183.304688 73.476562 183.886719 73.476562 C 184.632812 73.476562 185.375 73.15625 185.886719 72.535156 Z M 167.125 63.773438 C 163.507812 63.773438 160.5625 60.828125 160.5625 57.207031 C 160.5625 53.589844 163.507812 50.644531 167.125 50.644531 C 170.746094 50.644531 173.691406 53.589844 173.691406 57.207031 C 173.691406 60.828125 170.746094 63.773438 167.125 63.773438 Z M 167.125 63.773438 " fill-opacity="1" fill-rule="nonzero"/><g clip-path="url(#6ed0fac4ad)"><g clip-path="url(#b1ec480abc)"><path fill="#ffffff" d="M 208.292969 22.066406 L 236.492188 22.066406 L 236.492188 50.265625 L 208.292969 50.265625 Z M 208.292969 22.066406 " fill-opacity="1" fill-rule="nonzero"/></g></g><g clip-path="url(#bce22f8c36)"><g clip-path="url(#6a97dcf0a1)"><path stroke-linecap="butt" transform="matrix(0.746875, 0, 0, 0.746875, 208.294679, 22.06644)" fill="none" stroke-linejoin="miter" d="M 18.873234 -0.0000454651 C 8.449593 -0.0000454651 -0.00229027 8.451838 -0.00229027 18.875479 C -0.00229027 29.29912 8.449593 37.751004 18.873234 37.751004 C 29.296875 37.751004 37.748759 29.29912 37.748759 18.875479 C 37.748759 8.451838 29.296875 -0.0000454651 18.873234 -0.0000454651 Z M 18.873234 -0.0000454651 " stroke="#d42146" stroke-width="12" stroke-opacity="1" stroke-miterlimit="4"/></g></g><path stroke-linecap="round" transform="matrix(0.698808, -0.26361, 0.26361, 0.698808, 174.866847, 51.435564)" fill="none" stroke-linejoin="miter" d="M 3.499648 3.497398 L 41.884564 3.499461 " stroke="#df8270" stroke-width="7" stroke-opacity="1" stroke-miterlimit="4"/><path stroke-linecap="round" transform="matrix(0.729426, -0.1605, 0.1605, 0.729426, 216.382183, 79.759074)" fill="none" stroke-linejoin="miter" d="M 3.499007 3.49935 L 28.925989 3.49797 " stroke="#df8270" stroke-width="7" stroke-opacity="1" stroke-miterlimit="4"/><g clip-path="url(#92916866d9)"><g clip-path="url(#e71fec4d56)"><path stroke-linecap="butt" transform="matrix(0.746875, 0, 0, 0.746875, 242.651933, 66.063655)" fill="none" stroke-linejoin="miter" d="M 10.335279 -0.00154696 C 4.629212 -0.00154696 0.000550266 4.627114 0.000550266 10.338412 C 0.000550266 16.044479 4.629212 20.673141 10.335279 20.673141 C 16.046577 20.673141 20.670008 16.044479 20.670008 10.338412 C 20.670008 4.627114 16.046577 -0.00154696 10.335279 -0.00154696 Z M 10.335279 -0.00154696 " stroke="#dd4400" stroke-width="12" stroke-opacity="1" stroke-miterlimit="4"/></g></g><path stroke-linecap="round" transform="matrix(0.47545, 0.575994, -0.575994, 0.47545, 235.517525, 45.922914)" fill="none" stroke-linejoin="miter" d="M 3.497218 3.500411 L 23.573502 3.49763 " stroke="#df8270" stroke-width="7" stroke-opacity="1" stroke-miterlimit="4"/><path stroke-linecap="round" transform="matrix(0.637567, -0.389013, 0.389013, 0.637567, 94.081782, 80.400184)" fill="none" stroke-linejoin="miter" d="M 3.501524 3.500001 L 28.68346 3.498772 " stroke="#df8270" stroke-width="7" stroke-opacity="1" stroke-miterlimit="4"/><g clip-path="url(#4313012110)"><g clip-path="url(#c3f82c14f6)"><path stroke-linecap="butt" transform="matrix(0.746875, 0, 0, 0.746875, 70.762508, 80.814904)" fill="none" stroke-linejoin="miter" d="M 18.874467 0.0020115 C 8.450826 0.0020115 -0.00105704 8.448665 -0.00105704 18.877536 C -0.00105704 29.301177 8.450826 37.74783 18.874467 37.74783 C 29.298108 37.74783 37.749992 29.301177 37.749992 18.877536 C 37.749992 8.448665 29.298108 0.0020115 18.874467 0.0020115 Z M 18.874467 0.0020115 " stroke="#d42146" stroke-width="12" stroke-opacity="1" stroke-miterlimit="4"/></g></g><path stroke-linecap="round" transform="matrix(0.740483, 0.0975016, -0.0975016, 0.740483, 100.390191, 100.251025)" fill="none" stroke-linejoin="miter" d="M 3.499931 3.499497 L 24.922994 3.500929 " stroke="#df8270" stroke-width="7" stroke-opacity="1" stroke-miterlimit="4"/></svg>